<?xml version="1.0" encoding="UTF-8"?>
<svg width="99px" height="88px" viewBox="0 0 99 88" version="1.1" xmlns="http://www.w3.org/2000/svg" xmlns:xlink="http://www.w3.org/1999/xlink">
    <!-- Generator: Sketch 40.1 (33804) - http://www.bohemiancoding.com/sketch -->
    <title>邮件服务器</title>
    <desc>Created with Sketch.</desc>
    <defs></defs>
    <g id="产品管理" stroke="none" stroke-width="1" fill="none" fill-rule="evenodd">
        <g id="产品管理2" transform="translate(-871.000000, -360.000000)">
            <g id="右侧内容区域" transform="translate(224.000000, 94.000000)">
                <g id="Group-3" transform="translate(647.000000, 266.000000)">
                    <g id="邮件服务器">
                        <path d="M49.35,0 C25.96048,0 7,18.8940862 7,42.1982759 C7,56.6162759 14.2611,69.3386724 25.33216,76.9497069 L73.3663,76.9497069 C84.4389,69.3386724 91.7,56.6162759 91.7,42.1982759 C91.7,18.8940862 72.73952,0 49.35,0 Z" id="Fill-613" fill="#EFF6FF"></path>
                        <g id="files-color_single" transform="translate(31.000000, 22.000000)">
                            <g id="Group">
                                <path d="M38,2 L38,34 L26,46 L2,46 C0.895,46 0,45.105 0,44 L0,2 C0,0.895 0.895,0 2,0 L36,0 C37.105,0 38,0.895 38,2 L38,2 Z" id="Shape" fill="#FFFFFF"></path>
                                <path d="M26,46 L26,36 C26,34.895 26.895,34 28,34 L38,34 L26,46 L26,46 Z" id="Shape" fill="#FFCA68"></path>
                            </g>
                        </g>
                        <g id="ui-color-1_email-83" transform="translate(28.000000, 27.000000)">
                            <g id="Group"></g>
                        </g>
                        <path d="M63.0909091,82.3017241 L34.9090909,82.3017241 C34.4072727,82.3017241 34,81.7861379 34,81.1508621 C34,80.5155862 34.4072727,80 34.9090909,80 L63.0909091,80 C63.5927273,80 64,80.5155862 64,81.1508621 C64,81.7861379 63.5927273,82.3017241 63.0909091,82.3017241" id="Fill-615" fill="#EEF5FE"></path>
                        <path d="M49.79546,87.3232931 L42.59904,87.3232931 C41.96148,87.3232931 41.44404,86.8077069 41.44404,86.172431 C41.44404,85.5371552 41.96148,85.021569 42.59904,85.021569 L49.79546,85.021569 C50.43302,85.021569 50.95046,85.5371552 50.95046,86.172431 C50.95046,86.8077069 50.43302,87.3232931 49.79546,87.3232931" id="Fill-616" fill="#EEF5FE"></path>
                        <path d="M56.10946,87.3232931 L54.18754,87.3232931 C53.54998,87.3232931 53.03254,86.8077069 53.03254,86.172431 C53.03254,85.5371552 53.54998,85.021569 54.18754,85.021569 L56.10946,85.021569 C56.74702,85.021569 57.26446,85.5371552 57.26446,86.172431 C57.26446,86.8077069 56.74702,87.3232931 56.10946,87.3232931" id="Fill-617" fill="#EEF5FE"></path>
                        <g id="Group-17" transform="translate(51.000000, 70.000000) rotate(-90.000000) translate(-51.000000, -70.000000) translate(46.000000, 65.000000)"></g>
                        <path d="M88.84524,15.3955517 C88.84986,15.0855862 88.95612,13.5511034 90.69324,13.5511034 L90.69786,13.5511034 L90.70556,13.5511034 L90.7071,13.5511034 L90.71018,13.5511034 L90.71172,13.5511034 C91.04282,13.5403621 91.30924,13.2702931 91.30924,12.9373103 C91.30924,12.5981897 91.03512,12.3250517 90.69632,12.3219828 C90.38678,12.3189138 88.84524,12.2130345 88.84524,10.4821379 C88.84524,10.1414828 88.56958,9.86834483 88.22924,9.86834483 C87.8889,9.86834483 87.61324,10.1414828 87.61324,10.4821379 C87.61324,12.2130345 86.07324,12.3189138 85.76216,12.3219828 C85.42336,12.3250517 85.14924,12.5981897 85.14924,12.9373103 C85.14924,13.276431 85.4249,13.5511034 85.76524,13.5511034 C87.50544,13.5511034 87.61016,15.0871207 87.61324,15.3909483 L87.61324,15.3955517 C87.61478,15.3986207 87.61632,15.4047586 87.61324,15.4032241 L87.61324,15.4093621 C87.62402,15.7408103 87.89506,16.0062759 88.22924,16.0062759 C88.56958,16.0062759 88.8437,15.7316034 88.84524,15.3955517" id="Fill-625" fill="#FFFFFF"></path>
                        <path d="M84.22524,49.191 C84.22986,48.882569 84.33612,47.3465517 86.07324,47.3465517 L86.07786,47.3465517 L86.08556,47.3465517 L86.0871,47.3465517 L86.09018,47.3465517 L86.09172,47.3465517 C86.42282,47.3373448 86.68924,47.0657414 86.68924,46.7327586 C86.68924,46.3951724 86.41512,46.1205 86.07632,46.1189655 C85.76678,46.1158966 84.22524,46.0100172 84.22524,44.2775862 C84.22524,43.9384655 83.94958,43.6637931 83.60924,43.6637931 C83.2689,43.6637931 82.99324,43.9384655 82.99324,44.2775862 C82.99324,46.0100172 81.45324,46.1158966 81.14216,46.1189655 C80.80336,46.1205 80.52924,46.3951724 80.52924,46.7327586 C80.52924,47.0718793 80.8049,47.3465517 81.14524,47.3465517 C82.88544,47.3465517 82.99016,48.8841034 82.99324,49.187931 L82.99324,49.191 C82.99478,49.1956034 82.99632,49.2002069 82.99324,49.2002069 L82.99324,49.2032759 L82.99324,49.2063448 C83.00402,49.5362586 83.27506,49.8017241 83.60924,49.8017241 C83.94958,49.8017241 84.2237,49.5285862 84.22524,49.191" id="Fill-626" fill="#FFCA68"></path>
                        <path d="M41.67504,13.861069 C41.67812,13.5511034 41.78592,12.0166207 43.52304,12.0166207 L43.52766,12.0166207 L43.53536,12.0166207 L43.5369,12.0166207 L43.53844,12.0166207 L43.54152,12.0166207 C43.87262,12.0058793 44.13904,11.7358103 44.13904,11.4028276 C44.13904,11.0637069 43.86492,10.790569 43.52612,10.7875 C43.21658,10.784431 41.67504,10.6785517 41.67504,8.94765517 C41.67504,8.607 41.39938,8.33386207 41.05904,8.33386207 C40.7187,8.33386207 40.44304,8.607 40.44304,8.94765517 C40.44304,10.6785517 38.9015,10.784431 38.59196,10.7875 C38.25316,10.790569 37.97904,11.0637069 37.97904,11.4028276 C37.97904,11.7419483 38.2547,12.0166207 38.59504,12.0166207 C40.3337,12.0166207 40.43996,13.5526379 40.44304,13.8564655 L40.44304,13.861069 C40.44304,13.8641379 40.44458,13.8702759 40.44304,13.8687414 L40.44304,13.8748793 C40.45228,14.2063276 40.72486,14.4717931 41.05904,14.4717931 C41.39784,14.4717931 41.6735,14.1971207 41.67504,13.861069" id="Fill-627" fill="#FFE2AB"></path>
                        <path d="M97.3599,39.404069 C97.36144,39.2490862 97.4138,38.4818448 98.2839,38.4818448 L98.2916,38.4818448 C98.45792,38.4772414 98.5919,38.3422069 98.5919,38.1749483 C98.5919,38.0061552 98.45484,37.8695862 98.28544,37.8680517 C98.1299,37.8665172 97.3599,37.8128103 97.3599,36.9473621 C97.3599,36.7770345 97.2213,36.6404655 97.0519,36.6404655 C96.88096,36.6404655 96.7439,36.7770345 96.7439,36.9473621 C96.7439,37.8128103 95.97236,37.8665172 95.81836,37.8680517 C95.64896,37.8695862 95.5119,38.0061552 95.5119,38.1749483 C95.5119,38.3452759 95.64896,38.4818448 95.8199,38.4818448 C96.68846,38.4818448 96.74236,39.2506207 96.7439,39.4025345 L96.7439,39.404069 L96.7439,39.4086724 L96.7439,39.4117414 C96.74852,39.575931 96.88404,39.709431 97.0519,39.709431 C97.2213,39.709431 97.35836,39.5728621 97.3599,39.404069" id="Fill-628" fill="#FFFFFF"></path>
                        <path d="M15.7399,48.1276034 C15.74144,47.9741552 15.7938,47.2053793 16.6639,47.2053793 L16.6716,47.2053793 C16.83792,47.2007759 16.9719,47.0657414 16.9719,46.8984828 C16.9719,46.7296897 16.83484,46.5931207 16.66544,46.5915862 C16.5099,46.5900517 15.7399,46.5378793 15.7399,45.6708966 C15.7399,45.5021034 15.6013,45.364 15.4319,45.364 C15.26096,45.364 15.1239,45.5021034 15.1239,45.6708966 C15.1239,46.5378793 14.35236,46.5900517 14.19836,46.5915862 C14.02896,46.5931207 13.8919,46.7296897 13.8919,46.8984828 C13.8919,47.0688103 14.02896,47.2053793 14.1999,47.2053793 C15.06846,47.2053793 15.12236,47.9741552 15.1239,48.126069 L15.1239,48.1291379 L15.1239,48.1322069 L15.1239,48.1337414 L15.1239,48.1352759 C15.12852,48.301 15.26404,48.4329655 15.4319,48.4329655 C15.6013,48.4329655 15.73836,48.2963966 15.7399,48.1276034" id="Fill-629" fill="#FFD588"></path>
                        <path d="M1.8799,21.4183966 C1.88144,21.2634138 1.9338,20.4961724 2.8039,20.4961724 L2.8116,20.4961724 C2.97792,20.491569 3.1119,20.355 3.1119,20.1892759 C3.1119,20.0204828 2.97484,19.8823793 2.80544,19.8823793 C2.6499,19.8808448 1.8799,19.8271379 1.8799,18.9616897 C1.8799,18.7913621 1.7413,18.6547931 1.5719,18.6547931 C1.40096,18.6547931 1.2639,18.7913621 1.2639,18.9616897 C1.2639,19.8271379 0.49236,19.8808448 0.33836,19.8823793 C0.16896,19.8823793 0.0319,20.0204828 0.0319,20.1892759 C0.0319,20.358069 0.16896,20.4961724 0.3399,20.4961724 C1.20846,20.4961724 1.26236,21.2649483 1.2639,21.4168621 L1.2639,21.4183966 L1.2639,21.423 L1.2639,21.426069 C1.26852,21.5902586 1.40404,21.7237586 1.5719,21.7237586 C1.7413,21.7237586 1.87836,21.5871897 1.8799,21.4183966" id="Fill-630" fill="#FFFFFF"></path>
                        <path d="M7.5779,75.6608276 C7.58098,75.3523966 7.68724,73.8163793 9.4259,73.8163793 L9.42898,73.8163793 L9.43668,73.8163793 L9.44284,73.8163793 C9.77548,73.8071724 10.0419,73.535569 10.0419,73.2025862 C10.0419,72.865 9.76778,72.5903276 9.42898,72.5887931 C9.11944,72.5857241 7.5779,72.4798448 7.5779,70.7474138 C7.5779,70.4082931 7.30224,70.1336207 6.9619,70.1336207 C6.62156,70.1336207 6.3459,70.4082931 6.3459,70.7474138 C6.3459,72.4798448 4.80436,72.5857241 4.49482,72.5887931 C4.15602,72.5903276 3.8819,72.865 3.8819,73.2025862 C3.8819,73.5417069 4.15756,73.8163793 4.4979,73.8163793 C6.23656,73.8163793 6.34128,75.353931 6.3459,75.6577586 L6.3459,75.6608276 C6.3459,75.665431 6.34744,75.6700345 6.3459,75.6700345 L6.3459,75.6731034 L6.3459,75.6761724 C6.35514,76.0060862 6.62772,76.2715517 6.9619,76.2715517 C7.3007,76.2715517 7.57636,75.9984138 7.5779,75.6608276" id="Fill-631" fill="#FFFFFF"></path>
                    </g>
                </g>
            </g>
        </g>
    </g>
</svg>