<?xml version="1.0" encoding="UTF-8" standalone="no"?>
<svg width="16px" height="16px" viewBox="0 0 16 16" version="1.1" xmlns="http://www.w3.org/2000/svg" xmlns:xlink="http://www.w3.org/1999/xlink">
    <!-- Generator: Sketch 46.2 (44496) - http://www.bohemiancoding.com/sketch -->
    <title>form-pause</title>
    <desc>Created with Sketch.</desc>
    <defs></defs>
    <g id="Page-1" stroke="none" stroke-width="1" fill="none" fill-rule="evenodd">
        <g id="form-pause" fill-rule="nonzero" fill="#E75845">
            <path d="M14,10 L14,2 C14,0.8954305 13.1045695,-2.02906125e-16 12,0 L2,0 C0.8954305,2.02906125e-16 -1.3527075e-16,0.8954305 0,2 L0,14 C1.3527075e-16,15.1045695 0.8954305,16 2,16 L8.5,16 L5,16 L5,15 L1,15 L1,1 L3,1 L13,1 L13,6 L14,6 L14,10 Z" id="Combined-Shape"></path>
            <rect id="Rectangle-2" x="3" y="4" width="8" height="1" rx="0.5"></rect>
            <path d="M3.5,7 L6.5,7 L6.5,7 C6.77614237,7 7,7.22385763 7,7.5 L7,7.5 L7,7.5 C7,7.77614237 6.77614237,8 6.5,8 L3.5,8 L3.5,8 C3.22385763,8 3,7.77614237 3,7.5 L3,7.5 L3,7.5 C3,7.22385763 3.22385763,7 3.5,7 Z" id="Rectangle-2"></path>
            <path d="M3.5,11 L4.5,11 L4.5,11 C4.77614237,11 5,11.2238576 5,11.5 L5,11.5 L5,11.5 C5,11.7761424 4.77614237,12 4.5,12 L3.5,12 L3.5,12 C3.22385763,12 3,11.7761424 3,11.5 L3,11.5 L3,11.5 C3,11.2238576 3.22385763,11 3.5,11 Z" id="Rectangle-2"></path>
            <path d="M11.5,16 C9.01471863,16 7,13.9852814 7,11.5 C7,9.01471863 9.01471863,7 11.5,7 C13.9852814,7 16,9.01471863 16,11.5 C16,13.9852814 13.9852814,16 11.5,16 Z M10.5,10 C10.2238576,10 10,10.2238576 10,10.5 L10,12.5 C10,12.7761424 10.2238576,13 10.5,13 C10.7761424,13 11,12.7761424 11,12.5 L11,10.5 C11,10.2238576 10.7761424,10 10.5,10 Z M12.5,10 C12.2238576,10 12,10.2238576 12,10.5 L12,12.5 C12,12.7761424 12.2238576,13 12.5,13 C12.7761424,13 13,12.7761424 13,12.5 L13,10.5 C13,10.2238576 12.7761424,10 12.5,10 Z" id="Combined-Shape"></path>
        </g>
    </g>
</svg>