<?xml version="1.0" encoding="UTF-8"?>
<svg width="100px" height="35px" viewBox="0 0 100 35" version="1.1" xmlns="http://www.w3.org/2000/svg" xmlns:xlink="http://www.w3.org/1999/xlink">
    <!-- Generator: Sketch 40.3 (33839) - http://www.bohemiancoding.com/sketch -->
    <title>支付宝</title>
    <desc>Created with Sketch.</desc>
    <defs></defs>
    <g id="购买应用" stroke="none" stroke-width="1" fill="none" fill-rule="evenodd">
        <g id="购买应用详情3" transform="translate(-176.000000, -499.000000)">
            <g id="Group-4" transform="translate(144.000000, 499.000000)">
                <g id="Group" transform="translate(32.000000, 0.000000)">
                    <path d="M48.2954204,30.6750416 L48.8326478,32.2817274 L50.3386566,32.2817274 L47.3725997,24.3042404 L46.221041,24.3042404 L43.265978,32.2817274 L44.7726487,32.2817274 L45.3332242,30.6750416 L48.2953836,30.6750416 L48.2954204,30.6750416 L48.2954204,30.6750416 Z M46.8386448,26.3602081 L47.9526258,29.668564 L45.6844755,29.668564 L46.838608,26.3602081 L46.8386448,26.3602081 Z M55.0907527,24.304204 L55.0907527,32.281691 L59.9665756,32.281691 L59.9665756,31.1955984 L56.5391084,31.1955984 L56.5391084,24.304204 L55.0907527,24.304204 Z M65.2804605,24.304204 L66.7301398,24.304204 L66.7301398,32.2811082 L65.2804605,32.2811082 L65.2804605,24.304204 Z M75.732697,24.304204 L72.6026881,24.304204 L72.6026881,32.281691 L74.0510442,32.281691 L74.0510442,29.2153486 L75.732697,29.2153486 C77.2944472,29.2153486 78.3857785,28.2056296 78.3857785,26.7600676 C78.3857785,25.3145057 77.2944838,24.3041311 75.732697,24.3041311 L75.732697,24.304204 Z M75.6516957,28.1190219 L74.0510442,28.1190219 L74.0510442,25.3896774 L75.6516957,25.3896774 C76.4552754,25.3896774 76.9354375,26.0861446 76.9354375,26.7601041 C76.9354375,27.4186577 76.4856825,28.1190219 75.6516957,28.1190219 Z M86.8925466,30.6750416 L87.4297736,32.2817274 L88.9357826,32.2817274 L85.9690642,24.3042404 L84.818167,24.3042404 L81.8631042,32.2817274 L83.3704369,32.2817274 L83.9296888,30.6750416 L86.89251,30.6750416 L86.8925466,30.6750416 Z M85.4357343,26.3602081 L86.549715,29.668564 L84.2815652,29.668564 L85.435697,26.3602081 L85.4357343,26.3602081 Z M97.0051504,24.304204 L95.4246115,27.7030281 L93.8207239,24.304204 L92.2550766,24.304204 L94.6936494,29.0048387 L94.6936494,32.2817274 L96.1316363,32.2817274 L96.1316363,29.0048387 L96.1407184,28.9868834 L98.5708716,24.3042404 L97.0051504,24.304204 Z" id="ALIPAY" fill="#3F3A39"></path>
                    <path d="M85.8200035,5.48119667 L95.9533816,5.48119667 L95.9533816,7.46785642 L99.5720097,7.46785642 L99.5720097,5.11404266 C99.570686,5.10828824 99.570686,5.10632154 99.570686,5.09991155 C99.570686,4.57097815 99.1520373,4.1428564 98.6336356,4.13382414 L92.776677,4.13382414 L92.776677,2.28130073 L88.9895756,2.28130073 L88.9895756,4.13382414 L82.2013761,4.13382414 L82.2013761,7.46785642 L85.8200035,7.46785642 L85.8200035,5.48119667 Z M63.8969282,2.45269511 L60.1862685,11.1446774 L63.0324594,11.1446774 L63.0324594,21.4882154 L66.1450028,21.4882154 L66.1450028,7.76828821 L65.0180424,7.76828821 L67.3626349,2.45273153 L63.8969282,2.45269511 Z M99.9874224,21.0131842 L98.8501297,17.2092924 C98.7755997,16.9666597 98.5526708,16.7907856 98.2895542,16.7901301 L95.2768012,16.7901301 L96.1496901,19.7120291 L92.6075045,19.7120291 L92.6075045,14.0530645 L99.5642146,14.0530645 L99.5642146,12.7050729 L92.6075045,12.7050729 L92.6075045,10.0418314 L99.5642146,10.0418314 L99.5642146,8.6944589 L82.2013395,8.6944589 L82.2013395,10.0418314 L89.1573879,10.0418314 L89.1573879,12.7050729 L82.2013395,12.7050729 L82.2013395,14.0530645 L89.1573879,14.0530645 L89.1573879,19.7120291 L82.2013395,19.7120291 L82.2013395,21.0600208 L99.9873485,21.0600208 L99.9730821,21.0138033 L99.9873485,21.0138033 L99.9874224,21.0131842 Z M71.8567619,9.57776271 C71.7381829,9.33899066 71.4964286,9.17400627 71.2165086,9.17211237 L68.5219885,9.17211237 L70.6203043,15.7194797 L73.808628,15.7194797 L71.8567253,9.57779915 L71.8567619,9.57776271 Z M78.6780159,2.61057753 L75.4430331,2.61057753 L75.4430331,5.95870447 L67.47022,5.95870447 L67.47022,7.30607698 L75.4430331,7.30607698 L75.4430331,19.3423257 C75.4151994,19.6170447 75.1961311,19.8327263 74.920697,19.8468575 L73.2772836,19.8468575 L73.2772836,21.2417222 L77.4694293,21.2417222 C78.1323685,21.2141155 78.6637502,20.6685015 78.6780159,19.993231 L78.6780159,7.30611342 L79.9915776,7.30611342 L79.9915776,5.95874089 L78.6780159,5.95874089 L78.6780159,2.61061394 L78.6780159,2.61057753 Z M58.493585,8.70993758 L52.2795656,8.70993758 L52.2795656,6.50435484 L59.4844645,6.50435484 L59.4844645,5.13068678 L52.2795656,5.13068678 L52.2795656,2.33585848 L49.067232,2.33651404 C48.7153556,2.33651404 48.4308762,2.62795005 48.4308762,2.98865765 L48.4308762,5.13068678 L41.2765343,5.13068678 L41.2765343,6.50435484 L48.4308762,6.50435484 L48.4308762,8.70993758 L42.3924641,8.70993758 L42.3924641,10.0829865 L54.4200183,10.0829865 C54.4200183,10.0829865 53.7538431,12.6602029 50.4546986,15.4306296 C47.4990105,13.2141571 46.5107415,11.4489334 46.5107415,11.4489334 L43.2841417,11.4489334 C44.58932,13.6898075 46.4446315,15.4845681 48.44187,16.9082778 C46.6072594,18.0893548 44.2276999,19.2281113 41.1508222,20.1382934 L41.1508222,21.7834755 C41.1508222,21.7834755 45.8976972,20.896384 50.4851798,18.2190114 C55.0797589,20.8751873 59.6944137,21.7834755 59.6944137,21.7834755 L59.6944137,20.2262123 C56.7412994,19.1612799 54.4012295,17.9904735 52.5633831,16.8600936 C55.2261718,14.9080697 57.5584468,12.25641 58.493585,8.70990114 L58.493585,8.70993758 Z" id="支付宝" fill="#3F3A39"></path>
                    <rect id="Background" fill="#FFFFFF" x="0.169391649" y="0" width="35.2657005" height="34.9316406" rx="5.79710145"></rect>
                    <path d="M8.64009124,18.9925078 C7.75551001,19.0791519 6.09525648,19.4662279 5.18732715,20.2589907 C2.46556145,22.6019147 4.09408362,26.8872477 9.60111456,26.8872477 C12.8017925,26.8872477 16.0011467,24.8652601 18.5135883,21.6294537 C14.9403332,19.9066233 11.9114018,18.6735015 8.64009124,18.9925442 L8.64009124,18.9925078 Z M29.1815464,21.9535588 C34.2790109,23.6398231 35.4350921,23.7303642 35.4350921,23.7303642 L35.4350921,5.6012383 C35.4350921,2.50728929 32.8993393,3.64203954e-05 29.7667202,3.64203954e-05 L5.70705262,3.64203954e-05 C2.57380848,3.64203954e-05 0.0367319239,2.5073257 0.0367319239,5.6012383 L0.0367319239,29.3630697 C0.0367319239,32.455744 2.57380848,34.963616 5.70705262,34.963616 L29.7667202,34.963616 C32.8993393,34.963616 35.4350921,32.4563632 35.4350921,29.3630697 L35.4350921,29.1339126 C35.4350921,29.1339126 26.2277703,25.3428408 21.5781117,23.1347087 C18.4604207,26.9231946 14.4373743,29.2237617 10.2614435,29.2237617 C3.1984718,29.2237617 0.80012352,23.1193028 4.14397873,19.100385 C4.87365344,18.2254943 6.11400852,17.3884443 8.03932754,16.9192404 C11.0500952,16.1887565 15.8436664,17.3756608 20.3351828,18.8397971 C21.1426233,17.3692144 21.8224029,15.7509833 22.3292226,14.0268419 L8.48584658,14.0268419 L8.48584658,12.6416285 L15.6233484,12.6416285 L15.6233484,10.1594329 L6.97851401,10.1594329 L6.97851401,8.77356402 L15.6233484,8.77356402 L15.6233484,5.23219043 C15.6233484,5.23219043 15.6233484,4.63522373 16.2357678,4.63522373 L19.7241607,4.63522373 L19.7241607,8.77356402 L28.2717787,8.77356402 L28.2717787,10.1594329 L19.7241607,10.1594329 L19.7241607,12.6416285 L26.7015716,12.6416285 C26.0340728,15.3427471 25.0192569,17.8294589 23.7471704,20.0125702 C25.8643117,20.7687305 27.7656576,21.4857024 29.1816199,21.953668 L29.1815464,21.9535588 Z" id="Icon" fill="#00AAEE"></path>
                </g>
            </g>
        </g>
    </g>
</svg>