<svg xmlns="http://www.w3.org/2000/svg" width="147" height="35" viewBox="0 0 147 35">
  <g fill="none" fill-rule="evenodd">
    <rect width="35.266" height="34.932" fill="#F5BA4E" rx="5.797"/>
    <path fill="#FFFFFF" d="M0.5,15.9952511 C0.5,16.7996385 1.15205895,17.4517249 1.95644631,17.4517249 L23.0396583,17.4517249 C23.8440456,17.4517249 24.496132,16.799611 24.496132,15.9952511 L24.496132,7.27157264 L0.5,7.27157264 L0.5,15.9952511 L0.5,15.9952511 Z M15.9818673,14.1199773 L17.0239914,12.0357017 C17.1469255,11.7897786 17.398233,11.6344832 17.6731659,11.6344832 L21.114469,11.6344832 C21.3317946,11.6344832 21.4731619,11.8631819 21.3759684,12.0576238 L20.3338444,14.1418994 C20.2109103,14.3877675 19.9595753,14.5431178 19.6846699,14.5431178 L16.2433667,14.5431178 C16.0260137,14.5431178 15.8846189,14.3143642 15.9818673,14.1199773 Z M23.0396857,0 L1.95644631,0 C1.15205895,0 0.5,0.652058953 0.5,1.45647377 L0.5,3.63577259 L24.4961595,3.63577259 L24.4961595,1.45647377 C24.4961595,0.652058953 23.8440456,0 23.0396857,0 Z" transform="translate(5 9)"/>
    <path fill="#494949" d="M54.322,24.01 C51.748,24.946 48.732,25.674 45.3,26.246 L45.638,28.898 C48.888,28.3 51.774,27.52 54.322,26.558 L54.322,24.01 Z M49.148,5.472 C48.29,8.254 47.276,10.802 46.106,13.142 C45.768,13.61 45.404,13.948 44.988,14.13 L45.638,16.6 L49.33,16.106 C48.212,18.082 47.276,19.486 46.548,20.266 C46.21,20.578 45.794,20.838 45.326,21.046 L46.028,23.49 C48.55,23.178 51.228,22.528 54.062,21.566 L54.062,19.148 C52.424,19.72 50.812,20.162 49.226,20.5 C50.63,18.628 52.372,15.742 54.4,11.816 L51.982,10.88 C51.514,11.868 51.046,12.778 50.63,13.662 L48.134,13.974 C49.356,12.05 50.552,9.554 51.748,6.512 L49.148,5.472 Z M66.984,9.97 L60.9,10.828 L60.9,5.628 L58.17,5.628 L58.17,11.192 L54.478,11.712 L54.868,14.208 L58.222,13.74 C58.274,14.676 58.326,15.612 58.43,16.496 L54.036,17.198 L54.426,19.746 L58.794,19.07 C58.872,19.59 58.976,20.11 59.106,20.63 C59.392,21.878 59.756,23.048 60.224,24.114 C58.404,25.44 56.35,26.454 54.062,27.182 L55.648,29.366 C57.702,28.742 59.652,27.78 61.472,26.48 C61.576,26.662 61.732,26.844 61.888,27.052 C63.058,28.612 64.306,29.418 65.658,29.444 C67.166,29.444 68.284,27.78 69.064,24.452 L66.75,22.944 C66.386,25.284 65.918,26.454 65.346,26.454 C64.774,26.454 64.15,25.908 63.448,24.868 C64.878,23.542 66.23,21.956 67.504,20.11 L65.346,18.654 C64.436,20.006 63.422,21.254 62.304,22.346 C61.992,21.41 61.732,20.37 61.524,19.2 C61.472,19.018 61.446,18.836 61.446,18.654 L68.102,17.614 L67.686,15.066 L61.134,16.08 C61.03,15.222 60.978,14.312 60.952,13.35 L67.374,12.466 L66.984,9.97 Z M63.812,5.524 L61.758,6.824 C62.928,7.994 63.864,9.06 64.54,10.022 L66.672,8.54 C65.996,7.708 65.034,6.694 63.812,5.524 Z M71.3260929,6.772 L71.3260929,9.424 L80.9460929,9.424 L80.9460929,29.704 L83.6760929,29.704 L83.6760929,15.508 C85.8080929,16.6 88.4600929,18.186 91.6580929,20.214 L93.2960929,17.77 C90.0460929,15.846 86.8480929,14.104 83.6760929,12.596 L83.6760929,9.424 L94.6480929,9.424 L94.6480929,6.772 L71.3260929,6.772 Z M107.596186,5.654 L107.596186,8.748 L97.7421857,8.748 L97.7421857,11.4 L107.596186,11.4 L107.596186,14.572 L99.7441857,14.572 L99.7441857,17.094 L101.486186,17.094 C101.876186,18.342 102.500186,19.538 103.384186,20.682 C104.320186,21.904 105.464186,23.022 106.764186,24.062 C104.112186,25.518 100.940186,26.636 97.1961857,27.468 L98.7561857,29.886 C102.786186,28.794 106.244186,27.39 109.104186,25.648 C110.274186,26.35 111.548186,27 112.952186,27.598 C114.980186,28.456 117.112186,29.184 119.374186,29.782 L120.960186,27.364 C118.880186,26.896 116.930186,26.324 115.058186,25.648 C113.758186,25.154 112.536186,24.608 111.418186,24.036 C113.966186,22.034 115.916186,19.668 117.268186,16.964 L117.268186,14.572 L110.404186,14.572 L110.404186,11.4 L120.258186,11.4 L120.258186,8.748 L110.404186,8.748 L110.404186,5.654 L107.596186,5.654 Z M109.052186,22.632 C107.960186,21.904 106.998186,21.072 106.140186,20.162 C105.282186,19.278 104.632186,18.238 104.164186,17.094 L114.200186,17.094 C112.978186,19.2 111.262186,21.046 109.052186,22.632 Z M128.552279,5.42 C127.304279,9.45 125.354279,12.96 122.728279,15.924 L123.612279,18.732 C124.522279,17.796 125.380279,16.808 126.160279,15.82 L126.160279,29.756 L128.864279,29.756 L128.864279,11.738 C129.774279,10.1 130.528279,8.384 131.100279,6.616 L128.552279,5.42 Z M131.308279,10.984 L131.308279,13.636 L140.616279,13.636 L140.616279,25.986 C140.616279,26.74 140.252279,27.13 139.550279,27.13 C138.406279,27.13 137.210279,27.052 135.962279,26.948 L136.586279,29.6 L140.486279,29.6 C142.384279,29.6 143.346279,28.612 143.346279,26.662 L143.346279,13.636 L146.882279,13.636 L146.882279,10.984 L143.346279,10.984 L143.346279,5.758 L140.616279,5.758 L140.616279,10.984 L131.308279,10.984 Z M134.090279,15.898 L131.854279,17.276 C133.648279,19.512 135.078279,21.566 136.144279,23.386 L138.458279,21.774 C137.418279,20.11 135.962279,18.134 134.090279,15.898 Z"/>
  </g>
</svg>
