<?xml version="1.0" encoding="UTF-8"?>
<svg width="154px" height="35px" viewBox="0 0 154 35" version="1.1" xmlns="http://www.w3.org/2000/svg" xmlns:xlink="http://www.w3.org/1999/xlink">
    <!-- Generator: Sketch 40.3 (33839) - http://www.bohemiancoding.com/sketch -->
    <title>微信支付</title>
    <desc>Created with Sketch.</desc>
    <defs></defs>
    <g id="支付配置" stroke="none" stroke-width="1" fill="none" fill-rule="evenodd">
        <g transform="translate(-248.000000, -251.000000)" id="Group-3">
            <g transform="translate(224.000000, 227.000000)">
                <g id="Group-4" transform="translate(24.000000, 24.000000)">
                    <g id="Group">
                        <rect id="Background" fill="#FFFFFF" x="0.0760090735" y="6.73076923" width="15.8243528" height="15.6744541" rx="5.79710145"></rect>
                        <g id="1" transform="translate(0.448718, 0.000000)">
                            <path d="M134.391026,28.7628205 L134.391026,10.6794872 C135.198718,8.88461538 135.961538,7 136.544872,5.07051282 L135.24359,4.30769231 C133.942308,8.83974359 132.102564,12.9230769 129.724359,16.3782051 L130.487179,17.724359 C131.294872,16.5128205 132.147436,15.0769231 133,13.5961538 L133,28.8076923 L134.391026,28.8076923 L134.391026,28.7628205 Z M145.878205,26.9230769 L145.070513,26.9230769 L145.070513,28.3141026 L146.282051,28.3141026 C147.673077,28.3141026 148.391026,28 149.019231,27.4166667 C149.602564,26.8333333 149.871795,25.9807692 149.826923,24.8141026 L149.826923,11.7564103 L153.596154,11.7564103 L153.596154,10.3653846 L149.826923,10.3653846 L149.826923,4.3525641 L148.435897,4.3525641 L148.435897,10.3653846 L136.858974,10.3653846 L136.858974,11.7564103 L148.435897,11.7564103 L148.435897,24.8141026 C148.435897,26.2948718 147.538462,26.9230769 145.878205,26.9230769 Z M142.737179,22.3012821 L144.128205,21.4935897 C143.365385,19.9679487 142.378205,17.9487179 141.166667,15.4807692 L139.910256,16.2435897 C140.717949,17.9038462 141.705128,19.9230769 142.737179,22.3012821 Z" id="付" fill="#494949"></path>
                            <path d="M128.064103,9.06410256 L128.064103,7.67307692 L116.980769,7.67307692 L116.980769,4.12820513 L115.544872,4.12820513 L115.544872,7.67307692 L104.551282,7.67307692 L104.551282,9.06410256 L115.544872,9.06410256 L115.544872,13.6858974 L115.320513,13.6858974 L108.410256,13.6858974 L108.410256,14.9423077 C108.410256,14.9423077 109.487179,17.4102564 111.730769,20.1025641 C112.628205,21.1794872 113.660256,22.3012821 115.00641,23.4230769 C112.49359,24.9487179 109.397436,26.4294872 105.044872,27.2820513 L105.852564,28.7179487 C105.852564,28.7179487 111.012821,27.6410256 116.128205,24.3205128 C116.801282,24.7692308 119.987179,27.2820513 125.910256,28.7179487 L125.910256,28.7179487 L125.955128,28.7179487 L126.538462,27.6410256 C126.538462,27.6410256 125.012821,27.2371795 122.679487,26.3397436 C121.064103,25.7115385 119.044872,24.7692308 117.115385,23.4679487 C119.987179,21.3589744 122.544872,18.3076923 124.070513,14.4038462 L122.903846,13.7307692 L116.935897,13.7307692 L116.935897,13.7307692 L116.935897,9.10897436 L128.064103,9.10897436 L128.064103,9.06410256 Z M122.410256,14.8974359 C122.410256,14.8974359 120.974359,18.9807692 116.083333,22.4807692 C113.75,20.6858974 111.326923,18.0833333 109.801282,14.8974359 L122.410256,14.8974359 L122.410256,14.8974359 Z" id="支" fill="#494949"></path>
                            <path d="M85.5705128,11.8461538 L100.108974,11.8461538 L100.108974,13.1474359 L85.5705128,13.1474359 L85.5705128,11.8461538 Z M85.5705128,15.8846154 L100.108974,15.8846154 L100.108974,17.275641 L85.5705128,17.275641 L85.5705128,15.8846154 Z M99.75,27.9102564 L99.75,20.0576923 L85.974359,20.0576923 L85.974359,27.9102564 L99.75,27.9102564 Z M87.3653846,21.3589744 L98.3589744,21.3589744 L98.3589744,26.6089744 L87.3653846,26.6089744 L87.3653846,21.3589744 Z M81.6217949,28.7628205 L81.6217949,10.6794872 C82.4294872,8.88461538 83.1923077,7 83.775641,5.07051282 L82.474359,4.30769231 C81.1730769,8.83974359 79.3333333,12.9230769 76.9551282,16.3782051 L77.7179487,17.724359 C78.525641,16.5128205 79.3782051,15.0769231 80.2307692,13.5961538 L80.2307692,28.8076923 L81.6217949,28.8076923 L81.6217949,28.7628205 Z M101.634615,7.67307692 L93.1089744,7.67307692 L94.0064103,7.13461538 L94.0512821,7.13461538 L94.0512821,7.08974359 C93.9615385,6.86538462 93.6923077,6.28205128 93.3782051,5.65384615 C93.1089744,5.07051282 92.8397436,4.53205128 92.7051282,4.21794872 L92.7051282,4.17307692 L91.4038462,4.93589744 L91.4038462,4.98076923 C91.8525641,5.83333333 92.2564103,6.64102564 92.6153846,7.40384615 C92.6602564,7.49358974 92.7051282,7.58333333 92.7051282,7.62820513 L84.1794872,7.62820513 L84.1794872,9.01923077 L101.634615,9.01923077 L101.634615,7.67307692 Z" id="信" fill="#494949"></path>
                            <path d="M64.1666667,6.59615385 L62.8653846,6.59615385 L62.8653846,11.1730769 L60.3974359,11.1730769 L60.3974359,4.66666667 L59.0961538,4.66666667 L59.0961538,11.1730769 L56.5384615,11.1730769 L56.5384615,6.59615385 L55.2371795,6.59615385 L55.2371795,12.474359 L64.1666667,12.474359 L64.1666667,6.59615385 Z M55.6410256,15.0320513 L63.5384615,15.0320513 L63.5384615,16.3333333 L55.6410256,16.3333333 L55.6410256,15.0320513 Z M57.3461538,21.3589744 L57.3461538,20.1923077 L61.3397436,20.1923077 L61.3397436,23.1089744 C61.2948718,24.1410256 61.25,24.4551282 60.8910256,24.9038462 L61.6987179,26.2948718 L61.7435897,26.25 C62.4615385,25.6666667 63.6282051,24.6794872 65.2884615,23.1987179 L65.3333333,23.1987179 L64.7051282,22.1217949 L64.6602564,22.0769231 L62.6410256,23.7820513 L62.6410256,18.8910256 L55.9551282,18.8910256 L55.9551282,20.8653846 C56.1346154,23.5576923 55.4615385,25.4871795 53.9358974,26.6089744 L53.8910256,26.6089744 L54.6089744,27.8653846 L54.6538462,27.9102564 L54.6987179,27.8653846 C56.5833333,26.3397436 57.4807692,24.1410256 57.3461538,21.3589744 Z M48.775641,10.8141026 L49.5833333,12.1602564 C51.6025641,10.1410256 53.3525641,7.71794872 54.6089744,5.07051282 L53.3974359,4.3525641 C52.1410256,6.95512821 50.5705128,9.15384615 48.775641,10.8141026 Z M48.4166667,18.9807692 L49.1346154,20.2371795 L49.1794872,20.2820513 L49.224359,20.2371795 C49.9871795,19.3397436 50.75,18.3974359 51.4679487,17.4102564 L51.4679487,28.7179487 L52.7692308,28.7179487 L52.7692308,15.2564103 C53.3525641,14.224359 53.9358974,13.0576923 54.474359,11.7564103 L54.474359,11.7115385 L53.2179487,10.9935897 L53.2179487,11.0384615 C52.0064103,14.0897436 50.3910256,16.7371795 48.4166667,18.9807692 Z M73.724359,10.4102564 L73.724359,9.10897436 L67.9358974,9.10897436 C68.4294872,7.58333333 69.0128205,5.83333333 69.1923077,4.3525641 L67.8461538,4.3525641 C66.9935897,8.30128205 65.6923077,11.7564103 64.0320513,14.4487179 L64.8397436,15.8846154 L65.4230769,14.6730769 C65.6474359,14.2692308 65.8269231,13.9551282 65.9615385,13.6858974 C66.3653846,17.1858974 67.0833333,20.0128205 68.0705128,22.0769231 C67.1282051,23.7371795 65.6474359,25.4423077 63.6730769,27.1923077 L63.6282051,27.1923077 L64.3910256,28.4935897 L64.4358974,28.5384615 L64.4807692,28.4935897 C66.5448718,26.5641026 67.9807692,24.8589744 68.7435897,23.4679487 C69.5961538,24.9935897 71.0769231,26.8333333 72.7371795,28.5833333 L72.7820513,28.6282051 L73.5448718,27.2820513 L73.5448718,27.2371795 L73.5,27.2371795 C71.7051282,25.4871795 70.2692308,23.6923077 69.4615385,22.1666667 C70.9423077,19.474359 71.8397436,15.525641 72.1987179,10.4102564 L73.724359,10.4102564 L73.724359,10.4102564 Z M68.8782051,20.5512821 C68.025641,18.3525641 67.3974359,15.3461538 66.9935897,11.6217949 C67.1282051,11.2179487 67.3076923,10.8141026 67.4871795,10.4551282 L70.9871795,10.4551282 C70.7179487,14.6730769 70,18.0833333 68.8782051,20.5512821 Z" id="微" fill="#494949"></path>
                            <path d="M14.3141026,21.9871795 C14.1346154,22.0769231 13.9551282,22.1217949 13.7307692,22.1217949 C13.2371795,22.1217949 12.8333333,21.8525641 12.6089744,21.4487179 L12.5192308,21.2692308 L8.97435897,13.5512821 C8.92948718,13.4615385 8.92948718,13.3717949 8.92948718,13.2820513 C8.92948718,12.9230769 9.19871795,12.6538462 9.55769231,12.6538462 C9.69230769,12.6538462 9.82692308,12.6987179 9.96153846,12.7884615 L14.1346154,15.75 C14.4487179,15.9294872 14.8076923,16.0641026 15.2115385,16.0641026 C15.4358974,16.0641026 15.6602564,16.0192308 15.8846154,15.9294872 L35.4487179,7.22435897 C31.9487179,3.09615385 26.1602564,0.403846154 19.6089744,0.403846154 C8.92948718,0.403846154 0.224358974,7.62820513 0.224358974,16.5576923 C0.224358974,21.4038462 2.82692308,25.8012821 6.91025641,28.7628205 C7.22435897,28.9871795 7.44871795,29.3910256 7.44871795,29.7948718 C7.44871795,29.9294872 7.40384615,30.0641026 7.35897436,30.1987179 C7.04487179,31.4102564 6.50641026,33.3846154 6.50641026,33.474359 C6.46153846,33.6089744 6.41666667,33.7884615 6.41666667,33.9679487 C6.41666667,34.3269231 6.68589744,34.5961538 7.04487179,34.5961538 C7.17948718,34.5961538 7.31410256,34.5512821 7.40384615,34.4615385 L11.6217949,31.9935897 C11.9358974,31.8141026 12.2948718,31.6794872 12.6538462,31.6794872 C12.8333333,31.6794872 13.0576923,31.724359 13.2371795,31.7692308 C15.2115385,32.3525641 17.3653846,32.6666667 19.5641026,32.6666667 C30.2435897,32.6666667 38.9487179,25.4423077 38.9487179,16.5128205 C38.9487179,13.8205128 38.1410256,11.2628205 36.75,9.01923077 L14.4487179,21.8974359 L14.3141026,21.9871795 L14.3141026,21.9871795 Z" id="Icon" fill="#09BB07"></path>
                        </g>
                    </g>
                </g>
            </g>
        </g>
    </g>
</svg>