<?xml version="1.0" encoding="utf-8"?>
<!-- Generator: Adobe Illustrator 16.0.0, SVG Export Plug-In . SVG Version: 6.00 Build 0)  -->
<!DOCTYPE svg PUBLIC "-//W3C//DTD SVG 1.1//EN" "http://www.w3.org/Graphics/SVG/1.1/DTD/svg11.dtd">
<svg version="1.1" id="图层_1" xmlns="http://www.w3.org/2000/svg" xmlns:xlink="http://www.w3.org/1999/xlink" x="0px" y="0px"
	 width="17px" height="16px" viewBox="0 0 17 16" enable-background="new 0 0 17 16" xml:space="preserve">
<g transform="translate(1 2.326)">
	<g transform="matrix(1 0 0 -1 5.217 9.783)">
		<path fill="none" stroke="#FFFFFF" stroke-linecap="round" stroke-linejoin="round" d="M1.956,0.651v5.217"/>
		<polyline fill="none" stroke="#FFFFFF" stroke-linecap="round" stroke-linejoin="round" points="3.913,3.912 1.957,5.868 0,3.912 
					"/>
	</g>
	<path fill="none" stroke="#FFFFFF" stroke-linecap="round" stroke-linejoin="round" d="M10.435,10.435h1.305
		c1.44,0,2.608-1.169,2.608-2.61c0-1.433-1.162-2.617-2.625-2.606c-0.168-2.549-2.283-4.567-4.875-4.567
		c-2.621,0-4.754,2.063-4.879,4.654C0.839,5.591,0,6.606,0,7.824c0,1.441,1.168,2.61,2.609,2.61h1.304"/>
</g>
</svg>
