<?xml version="1.0" encoding="utf-8"?>
<!-- Generator: Adobe Illustrator 16.0.0, SVG Export Plug-In . SVG Version: 6.00 Build 0)  -->
<!DOCTYPE svg PUBLIC "-//W3C//DTD SVG 1.1//EN" "http://www.w3.org/Graphics/SVG/1.1/DTD/svg11.dtd">
<svg version="1.1" id="图层_1" xmlns="http://www.w3.org/2000/svg" xmlns:xlink="http://www.w3.org/1999/xlink" x="0px" y="0px"
	 width="16px" height="16px" viewBox="0 0 16 16" enable-background="new 0 0 16 16" xml:space="preserve">
<path fill="#FA6F57" d="M11,4h-1V1.999C10,1.719,9.779,1.5,9.5,1.5h-3C6.22,1.5,6,1.719,6,1.999V4H5V1.999
	C5,1.172,5.673,0.5,6.5,0.5h3c0.827,0,1.5,0.672,1.5,1.499V4z"/>
<path fill="#F26F57" d="M5.906,7.469L5.906,7.469c0.276,0,0.5,0.225,0.5,0.5v4c0,0.275-0.224,0.5-0.5,0.5l0,0
	c-0.276,0-0.5-0.225-0.5-0.5v-4C5.406,7.693,5.63,7.469,5.906,7.469z"/>
<path fill="#FA6F57" d="M9.906,7.469L9.906,7.469c0.275,0,0.5,0.225,0.5,0.5v4c0,0.275-0.225,0.5-0.5,0.5l0,0
	c-0.275,0-0.5-0.225-0.5-0.5v-4C9.406,7.693,9.631,7.469,9.906,7.469z"/>
<g>
	<defs>
		<path id="SVGID_1_" d="M13.406,4.469v10.004c0,0.551-0.445,0.996-0.996,0.996H3.402c-0.55,0-0.996-0.445-0.996-0.996V4.469l0,0"/>
	</defs>
	<clipPath id="SVGID_2_">
		<use xlink:href="#SVGID_1_"  overflow="visible"/>
	</clipPath>
	<path clip-path="url(#SVGID_2_)" fill="none" d="M13.406,4.469v10.004c0,0.551-0.445,0.996-0.996,0.996H3.402
		c-0.55,0-0.996-0.445-0.996-0.996V4.469l0,0"/>
	<path clip-path="url(#SVGID_2_)" fill="#FA6F57" d="M12.41,16.469H3.402c-1.101,0-1.996-0.896-1.996-1.996V4.469
		c0-0.552,0.448-1,1-1s1,0.448,1,1v10.004l9.004-0.004l-0.004-10c0-0.552,0.447-1,1-1s1,0.448,1,1v10.004
		C14.406,15.572,13.51,16.469,12.41,16.469z"/>
	<path clip-path="url(#SVGID_2_)" fill="none" d="M13.406,4.469v10.004c0,0.551-0.445,0.996-0.996,0.996H3.402
		c-0.55,0-0.996-0.445-0.996-0.996V4.469l0,0"/>
	<path clip-path="url(#SVGID_2_)" fill="none" d="M13.406,4.469v10.004c0,0.551-0.445,0.996-0.996,0.996H3.402
		c-0.55,0-0.996-0.445-0.996-0.996V4.469l0,0"/>
</g>
<path fill="#FA6F57" d="M7.906,7.469L7.906,7.469c0.275,0,0.5,0.225,0.5,0.5v4c0,0.275-0.225,0.5-0.5,0.5l0,0
	c-0.275,0-0.5-0.225-0.5-0.5v-4C7.406,7.693,7.631,7.469,7.906,7.469z"/>
<g>
	<path fill="#FA6F57" d="M1,4h14H1z"/>
	<path fill="#FA6F57" d="M15,4.5H1C0.724,4.5,0.5,4.276,0.5,4S0.724,3.5,1,3.5h14c0.275,0,0.5,0.224,0.5,0.5S15.275,4.5,15,4.5z"/>
</g>
</svg>
